<svg width="25" height="25" viewBox="0 0 25 25" fill="none" xmlns="http://www.w3.org/2000/svg">
<g id="vuesax/bulk/colorfilter">
<g id="colorfilter">
<path id="Vector" opacity="0.6" d="M12.0024 20.3276L12.0023 20.3276L11.9983 20.3312C11.027 21.2109 9.74558 21.7418 8.33398 21.7418C5.30013 21.7418 2.83398 19.2756 2.83398 16.2418C2.83398 13.8632 4.35869 11.8232 6.47652 11.0629C7.28513 12.7384 8.79096 14.0133 10.6207 14.5137C11.167 14.6665 11.7421 14.7418 12.334 14.7418C12.7637 14.7418 13.1844 14.7021 13.5918 14.6219C13.7486 15.1322 13.834 15.6782 13.834 16.2418C13.834 17.8644 13.1285 19.3296 12.0024 20.3276Z" fill="#039855" stroke="#039855"/>
<path id="Vector_2" d="M17.4493 10.2673L17.4492 10.2675C16.8167 11.8625 15.4594 13.0913 13.7822 13.5495L13.7822 13.5495L13.7792 13.5503C13.326 13.6772 12.8415 13.7418 12.334 13.7418C11.8264 13.7418 11.342 13.6772 10.8888 13.5503L10.8858 13.5495C9.20861 13.0913 7.85125 11.8625 7.21877 10.2675L7.21869 10.2673C6.97169 9.64523 6.83398 8.95779 6.83398 8.24182C6.83398 5.20796 9.30013 2.74182 12.334 2.74182C15.3678 2.74182 17.834 5.20796 17.834 8.24182C17.834 8.95779 17.6963 9.64523 17.4493 10.2673Z" fill="#039855" stroke="#039855"/>
<path id="Vector_3" opacity="0.4" d="M22.334 16.2418C22.334 19.5518 19.644 22.2418 16.334 22.2418C14.794 22.2418 13.394 21.6618 12.334 20.7018C13.564 19.6118 14.334 18.0118 14.334 16.2418C14.334 15.4618 14.184 14.7118 13.914 14.0318C15.744 13.5318 17.224 12.1918 17.914 10.4518C20.454 11.1418 22.334 13.4818 22.334 16.2418Z" fill="#039855"/>
</g>
</g>
</svg>
