<svg width="18" height="18" viewBox="0 0 18 18" fill="none" xmlns="http://www.w3.org/2000/svg">
<g id="vuesax/bulk/element-3">
<g id="element-3">
<path id="Vector" opacity="0.4" d="M14.8299 7.49251V7.4925H14.8275H11.7975C11.2292 7.4925 10.927 7.38908 10.7626 7.24356C10.61 7.10847 10.5 6.86751 10.5 6.3825V2.985C10.5 2.50451 10.6096 2.26269 10.7631 2.12627C10.928 1.9798 11.2305 1.875 11.7975 1.875H14.8275C15.3945 1.875 15.697 1.9798 15.8619 2.12627C16.0154 2.26269 16.125 2.50451 16.125 2.985V6.39C16.125 6.87077 16.0153 7.11201 15.8624 7.24731C15.6984 7.39248 15.3966 7.49607 14.8299 7.49251Z" fill="#344054" stroke="#344054" stroke-width="0.75"/>
<path id="Vector_2" d="M16.125 11.7975V14.8275C16.125 15.3862 16.0103 15.6812 15.8458 15.8458C15.6812 16.0103 15.3862 16.125 14.8275 16.125H11.7975C11.2388 16.125 10.9438 16.0103 10.7792 15.8458C10.6147 15.6812 10.5 15.3862 10.5 14.8275V11.7975C10.5 11.2388 10.6147 10.9438 10.7792 10.7792C10.9438 10.6147 11.2388 10.5 11.7975 10.5H14.8275C15.3862 10.5 15.6812 10.6147 15.8458 10.7792C16.0103 10.9438 16.125 11.2388 16.125 11.7975Z" fill="#344054" stroke="#344054" stroke-width="0.75"/>
<path id="Vector_3" d="M7.875 6.39V2.985C7.875 1.9275 7.395 1.5 6.2025 1.5H3.1725C1.98 1.5 1.5 1.9275 1.5 2.985V6.3825C1.5 7.4475 1.98 7.8675 3.1725 7.8675H6.2025C7.395 7.875 7.875 7.4475 7.875 6.39Z" fill="#344054"/>
<path id="Vector_4" opacity="0.4" d="M7.875 14.8275V11.7975C7.875 10.605 7.395 10.125 6.2025 10.125H3.1725C1.98 10.125 1.5 10.605 1.5 11.7975V14.8275C1.5 16.02 1.98 16.5 3.1725 16.5H6.2025C7.395 16.5 7.875 16.02 7.875 14.8275Z" fill="#344054"/>
</g>
</g>
</svg>
