<svg width="25" height="25" viewBox="0 0 25 25" fill="none" xmlns="http://www.w3.org/2000/svg">
<g id="vuesax/bulk/video-play">
<g id="video-play">
<path id="Vector" opacity="0.4" d="M3.28631 6.69988L3.28635 6.69989L3.28763 6.69299C3.52331 5.4222 4.10182 4.44943 4.95156 3.78914C5.80463 3.12625 6.97223 2.74668 8.43684 2.74182H16.8952C18.3598 2.74668 19.5274 3.12625 20.3805 3.78914C21.2302 4.44943 21.8087 5.4222 22.0444 6.69299L22.0444 6.693L22.0457 6.69988C22.1279 7.1106 22.166 7.56675 22.166 8.05182V16.4318C22.166 18.1524 21.6551 19.4656 20.7725 20.3483C19.8898 21.2309 18.5766 21.7418 16.856 21.7418H8.47602C6.75545 21.7418 5.44219 21.2309 4.55957 20.3483C3.67694 19.4656 3.16602 18.1524 3.16602 16.4318V8.05182C3.16602 7.56675 3.20416 7.1106 3.28631 6.69988Z" fill="#F79009" stroke="#F79009"/>
<path id="Vector_2" d="M8.93602 6.60182V2.74182H9.43602V6.60182V7.10182H9.93602H15.396H15.896V6.60182V2.74182H16.396V6.60182V7.10182H16.896H22.1105C22.1308 7.26329 22.1453 7.43023 22.1544 7.60182H3.17759C3.18669 7.43023 3.20122 7.26329 3.22149 7.10182H8.43602H8.93602V6.60182Z" fill="#F79009" stroke="#F79009"/>
<path id="Vector_3" d="M15.1061 12.9618L13.0261 11.7618C12.2561 11.3218 11.5161 11.2618 10.9361 11.5918C10.3561 11.9218 10.0361 12.6018 10.0361 13.4818V15.8818C10.0361 16.7618 10.3561 17.4418 10.9361 17.7718C11.1861 17.9118 11.4661 17.9818 11.7561 17.9818C12.1561 17.9818 12.5861 17.8518 13.0261 17.6018L15.1061 16.4018C15.8761 15.9618 16.2961 15.3418 16.2961 14.6718C16.2961 14.0018 15.8661 13.4118 15.1061 12.9618Z" fill="#F79009"/>
</g>
</g>
</svg>
